<svg xmlns="http://www.w3.org/2000/svg" viewBox="0 0 512.001 512.001"><path d="M258.694 282.969l-81.821-22.315H102.4l-81.821 22.315A27.928 27.928 0 0 0 0 309.912v183.469a9.31 9.31 0 0 0 9.309 9.309h269.964V309.912a27.928 27.928 0 0 0-20.579-26.943z" fill="#b4e66e"/><path fill="#fad098" d="M93.09 223.42h93.09v74.47H93.09z"/><path d="M93.091 249.381c13.981 7.172 29.783 11.274 46.545 11.274s32.565-4.102 46.545-11.274v-25.962h-93.09v25.962z" fill="#d7af7d"/><path d="M223.418 121.018V65.164H55.855v55.855c-10.282 0-18.618 8.335-18.618 18.618 0 10.282 8.336 18.618 18.618 18.618 0 46.272 37.51 83.782 83.782 83.782s83.782-37.51 83.782-83.782c10.282 0 18.618-8.336 18.618-18.618-.001-10.284-8.336-18.619-18.619-18.619z" fill="#ffe1b4"/><path d="M102.4 158.255V65.164H55.855v55.855c-10.282 0-18.618 8.335-18.618 18.618 0 10.282 8.336 18.618 18.618 18.618 0 46.272 37.51 83.782 83.782 83.782 8.085 0 15.876-1.207 23.273-3.344-34.937-10.095-60.51-42.252-60.51-80.438z" fill="#fad098"/><path d="M139.636 204.8c-9.855 0-19.273-4.65-25.845-12.755-3.245-3.995-2.627-9.855 1.364-13.095 4.009-3.232 9.864-2.614 13.091 1.368 6.145 7.564 16.636 7.564 22.782 0 3.236-3.982 9.091-4.6 13.091-1.368 3.991 3.241 4.609 9.1 1.364 13.095-6.574 8.105-15.992 12.755-25.847 12.755z" fill="#d7af7d"/><g fill="#64463c"><path d="M102.4 158.255a9.307 9.307 0 0 1-9.309-9.309v-9.309c0-5.141 4.164-9.309 9.309-9.309s9.309 4.168 9.309 9.309v9.309a9.307 9.307 0 0 1-9.309 9.309zM176.873 158.255a9.307 9.307 0 0 1-9.309-9.309v-9.309c0-5.141 4.164-9.309 9.309-9.309s9.309 4.168 9.309 9.309v9.309a9.307 9.307 0 0 1-9.309 9.309z"/></g><path d="M202.301 112.158c2.718 7.199 10.414 10.461 17.994 9.132a18.05 18.05 0 0 1 3.124-.271c3.409 0 6.561.983 9.309 2.582V65.164c0-13.928-7.736-25.926-19.06-32.312-2.116-13.327-13.563-23.543-27.485-23.543H111.71c-35.989 0-65.164 29.175-65.164 65.164v49.128c2.748-1.599 5.901-2.582 9.309-2.582 1.197 0 2.364.116 3.492.339 9.067 1.785 18.145-3.226 20.414-12.183l2.777-23.97c.637-5.5 5.885-9.28 11.274-8.01 17.111 4.031 53.817 10.102 92.039.136 5.226-1.363 10.476 2.161 11.364 7.488l3.696 22.174c.299 1.793.769 3.52 1.39 5.165z" fill="#d59f63"/><g fill="#a0d755"><path d="M0 309.912v183.47a9.31 9.31 0 0 0 9.309 9.309h46.545V369.716a46.542 46.542 0 0 0-9.805-28.576l-38.79-49.875C2.746 296.27 0 302.814 0 309.912zM279.273 309.912v192.779h-55.855V369.716a46.542 46.542 0 0 1 9.805-28.576l38.791-49.875c4.513 5.005 7.259 11.549 7.259 18.647z"/></g><path d="M111.709 9.309c-35.989 0-65.164 29.174-65.164 65.164v49.128c2.748-1.599 5.901-2.582 9.309-2.582 1.197 0 2.364.116 3.492.339 9.067 1.785 18.145-3.226 20.415-12.184l2.777-23.97c.637-5.5 5.885-9.28 11.274-8.01 2.448.577 5.391 1.189 8.588 1.795V65.164c0-30.848 25.007-55.855 55.855-55.855h-46.546z" fill="#cd915a"/><g fill="#ffdc64"><path d="M111.8 390.982c-5.145 0-9.355-4.168-9.355-9.309s4.118-9.309 9.264-9.309h.091c5.145 0 9.309 4.168 9.309 9.309s-4.164 9.309-9.309 9.309zM111.8 465.455c-5.145 0-9.355-4.168-9.355-9.309s4.118-9.309 9.264-9.309h.091a9.307 9.307 0 0 1 9.309 9.309 9.307 9.307 0 0 1-9.309 9.309zM111.8 428.218c-5.145 0-9.355-4.168-9.355-9.309s4.118-9.309 9.264-9.309h.091c5.145 0 9.309 4.168 9.309 9.309s-4.164 9.309-9.309 9.309z"/></g><path fill="#a0d755" d="M130.33 297.891h18.618v204.8H130.33z"/><path d="M426.191 56.838c1.189-3.289 2.027-6.696 2.027-10.292 0-20.565-20.839-37.236-46.545-37.236s-46.545 16.671-46.545 37.236c0 3.596.839 7.003 2.027 10.292-34.222 16.574-57.882 51.532-57.882 92.108 0 46.271 37.51 83.782 83.782 83.782h37.237c46.271 0 83.782-37.51 83.782-83.782-.001-40.576-23.661-75.534-57.883-92.108z" fill="#785546"/><path d="M344.436 111.709c0-31.645 22.563-58 52.474-63.907-4.985-.745-10.045-1.256-15.237-1.256-5.629 0-11.112.574-16.494 1.448-1.336-3.403-2.124-6.995-2.124-10.757 0-11.052 6.136-20.872 15.695-27.691-24.318 1.229-43.623 17.236-43.623 37.001 0 3.597.843 7.001 2.035 10.288-34.226 16.573-57.889 51.534-57.889 92.112 0 46.271 37.51 83.782 83.782 83.782h18.618v-55.855l-37.236-37.236v-27.929h-.001z" fill="#64463c"/><path d="M494.445 346.723l-63.832-25.533a18.617 18.617 0 0 1-11.703-17.286v-33.94h-74.473v33.94a18.617 18.617 0 0 1-11.703 17.286l-63.832 25.533a27.926 27.926 0 0 0-17.555 25.93V409.6a9.31 9.31 0 0 0 9.309 9.309v74.473a9.31 9.31 0 0 0 9.309 9.309h223.418a9.31 9.31 0 0 0 9.309-9.309v-74.473a9.31 9.31 0 0 0 9.309-9.309v-36.947a27.929 27.929 0 0 0-17.556-25.93z" fill="#e6af78"/><g fill="#d29b6e"><path d="M260.655 409.6v27.927h9.309a9.31 9.31 0 0 1 9.309 9.309v55.855H307.2V409.6h-46.545zM502.691 409.6v27.927h-9.309a9.31 9.31 0 0 0-9.309 9.309v55.855h-27.927V409.6h46.545z"/></g><path d="M494.445 346.723l-52.903-21.161c-8.821 13.893-28.735 40.544-59.869 56.111-31.134-15.567-51.048-42.218-59.869-56.111l-52.903 21.161a27.926 27.926 0 0 0-17.555 25.93V409.6a9.31 9.31 0 0 0 9.309 9.309h37.236v83.782h167.564v-83.782h37.236A9.31 9.31 0 0 0 512 409.6v-36.947a27.926 27.926 0 0 0-17.555-25.93z" fill="#ffdc64"/><path d="M344.436 300.089c11.558 4.534 24.09 7.112 37.236 7.112s25.678-2.578 37.236-7.112v-30.124h-74.473v30.124h.001z" fill="#d29b6e"/><path d="M465.455 204.8c0-61.633-66.622-39.989-113.224-68.97-4.243-2.639-9.893-1.498-12.654 2.667-7.191 10.849-21.907 28.697-41.09 29.06-10.494.199-19.214 7.981-19.214 18.477v.147c0 10.283 8.336 18.618 18.618 18.618 0 6.4.718 12.632 2.076 18.62 8.467 37.31 41.833 65.162 81.705 65.162s73.238-27.852 81.705-65.162a83.975 83.975 0 0 0 2.078-18.619z" fill="#f0c087"/><path d="M344.436 204.8v-69.809c-1.911.614-3.674 1.718-4.86 3.506-7.191 10.849-21.907 28.697-41.09 29.061-10.494.199-19.214 7.981-19.214 18.476v.148c0 10.282 8.336 18.618 18.618 18.618 0 6.399.718 12.631 2.077 18.62 8.466 37.31 41.833 65.162 81.705 65.162 8.091 0 15.891-1.199 23.293-3.339-34.946-10.087-60.529-42.249-60.529-80.443z" fill="#e6af78"/><path d="M381.673 251.345c-9.855 0-19.273-4.65-25.845-12.755-3.245-3.995-2.627-9.855 1.364-13.095 4.009-3.236 9.864-2.618 13.091 1.368 6.145 7.564 16.636 7.564 22.782 0 3.227-3.986 9.091-4.605 13.091-1.368 3.991 3.241 4.609 9.1 1.364 13.095-6.575 8.105-15.993 12.755-25.847 12.755z" fill="#d29b6e"/><g fill="#64463c"><path d="M418.909 204.8a9.307 9.307 0 0 1-9.309-9.309v-9.309c0-5.141 4.164-9.309 9.309-9.309s9.309 4.168 9.309 9.309v9.309a9.306 9.306 0 0 1-9.309 9.309zM344.436 204.8a9.307 9.307 0 0 1-9.309-9.309v-9.309c0-5.141 4.164-9.309 9.309-9.309s9.309 4.168 9.309 9.309v9.309a9.306 9.306 0 0 1-9.309 9.309z"/></g><g fill="#ffc850"><path d="M297.891 408.003a18.62 18.62 0 0 0-5.453-13.165l-36.857-36.857c-2.678 4.324-4.235 9.358-4.235 14.672V409.6a9.31 9.31 0 0 0 9.309 9.309h37.236v-10.906zM465.455 408.003a18.62 18.62 0 0 1 5.453-13.165l36.857-36.857c2.678 4.324 4.235 9.358 4.235 14.672V409.6a9.31 9.31 0 0 1-9.309 9.309h-37.236v-10.906z"/></g><g fill="#c8ff82"><path d="M91.74 257.978l47.896 39.913-30.018 22.514a9.31 9.31 0 0 1-12.855-1.632l-27.348-34.185a9.31 9.31 0 0 1-.476-10.979l9.096-13.644c3.07-4.604 9.454-5.53 13.705-1.987zM187.532 257.978l-47.896 39.913 30.018 22.514a9.31 9.31 0 0 0 12.855-1.632l27.348-34.185a9.31 9.31 0 0 0 .476-10.979l-9.096-13.644c-3.069-4.604-9.454-5.53-13.705-1.987z"/></g></svg>